# xmcd
#
# Track frame offsets:
#	150
#	12714
#	25559
#	38096
#	50291
#	63167
#	75891
#	86831
#	99489
#	111030
#	123630
#	131023
#
# Disc length: 1928 seconds
#
# Revision: 1
# Processed by: cddbd v1.5.1PL0 Copyright (c) Steve Scherf et al.
# Submitted via: audiograbber 1.83.01
#
DISCID=8f07860c
DTITLE=Ray Charles - I Wonder Who's Kissing Her Now
DYEAR=1900
DGENRE=
TTITLE0=I'm Just A Lonely Boy
TTITLE1=Snow Is Falling
TTITLE2=I Will Not Let You Go
TTITLE3=Honey Honey
TTITLE4=Baby, Won't You Please Come Home
TTITLE5=Don't Put All Your Dreams In One Basket
TTITLE6=I Wonder Who's Kissing Her Now
TTITLE7=You'll Always Miss The Water
TTITLE8=How Long Blues
TTITLE9=Rockin' Chair Blues
TTITLE10=Guitar Blues
TTITLE11=Late In The Evening
EXTD=\n\n
EXTT0=
EXTT1=
EXTT2=
EXTT3=
EXTT4=
EXTT5=
EXTT6=
EXTT7=
EXTT8=
EXTT9=
EXTT10=
EXTT11=
PLAYORDER=
